<svg width="207" height="36" viewBox="0 0 207 36" fill="none" xmlns="http://www.w3.org/2000/svg">
<path d="M68.3661 29V6.09091H77.4045C79.1346 6.09091 80.6112 6.40039 81.8342 7.01935C83.0646 7.63086 84.0005 8.49964 84.6419 9.62571C85.2907 10.7443 85.6151 12.0605 85.6151 13.5744C85.6151 15.0957 85.2869 16.4045 84.6307 17.5007C83.9744 18.5895 83.0236 19.4247 81.7782 20.0064C80.5403 20.5881 79.0414 20.8789 77.2814 20.8789H71.2298V16.9862H76.4984C77.4231 16.9862 78.1912 16.8594 78.8027 16.6058C79.4142 16.3523 79.8691 15.9719 80.1674 15.4648C80.4732 14.9577 80.6261 14.3276 80.6261 13.5744C80.6261 12.8137 80.4732 12.1724 80.1674 11.6504C79.8691 11.1284 79.4105 10.7331 78.7915 10.4647C78.18 10.1887 77.4082 10.0508 76.476 10.0508H73.2097V29H68.3661ZM80.7379 18.5746L86.4316 29H81.0847L75.514 18.5746H80.7379ZM96.4348 29.3356C94.6972 29.3356 93.1946 28.9664 91.9268 28.2282C90.6665 27.4824 89.6933 26.4458 89.0072 25.1184C88.3212 23.7836 87.9781 22.2362 87.9781 20.4762C87.9781 18.7013 88.3212 17.1502 89.0072 15.8228C89.6933 14.4879 90.6665 13.4513 91.9268 12.7131C93.1946 11.9673 94.6972 11.5945 96.4348 11.5945C98.1724 11.5945 99.6713 11.9673 100.932 12.7131C102.199 13.4513 103.176 14.4879 103.862 15.8228C104.548 17.1502 104.891 18.7013 104.891 20.4762C104.891 22.2362 104.548 23.7836 103.862 25.1184C103.176 26.4458 102.199 27.4824 100.932 28.2282C99.6713 28.9664 98.1724 29.3356 96.4348 29.3356ZM96.4572 25.6442C97.2476 25.6442 97.9076 25.4205 98.4371 24.973C98.9666 24.5181 99.3655 23.8991 99.634 23.1161C99.9099 22.3331 100.048 21.4419 100.048 20.4426C100.048 19.4434 99.9099 18.5522 99.634 17.7692C99.3655 16.9862 98.9666 16.3672 98.4371 15.9123C97.9076 15.4574 97.2476 15.2299 96.4572 15.2299C95.6592 15.2299 94.9881 15.4574 94.4437 15.9123C93.9067 16.3672 93.5003 16.9862 93.2244 17.7692C92.9559 18.5522 92.8217 19.4434 92.8217 20.4426C92.8217 21.4419 92.9559 22.3331 93.2244 23.1161C93.5003 23.8991 93.9067 24.5181 94.4437 24.973C94.9881 25.4205 95.6592 25.6442 96.4572 25.6442ZM115.753 29.3356C114.016 29.3356 112.513 28.9664 111.245 28.2282C109.985 27.4824 109.012 26.4458 108.326 25.1184C107.64 23.7836 107.296 22.2362 107.296 20.4762C107.296 18.7013 107.64 17.1502 108.326 15.8228C109.012 14.4879 109.985 13.4513 111.245 12.7131C112.513 11.9673 114.016 11.5945 115.753 11.5945C117.491 11.5945 118.99 11.9673 120.25 12.7131C121.518 13.4513 122.495 14.4879 123.181 15.8228C123.867 17.1502 124.21 18.7013 124.21 20.4762C124.21 22.2362 123.867 23.7836 123.181 25.1184C122.495 26.4458 121.518 27.4824 120.25 28.2282C118.99 28.9664 117.491 29.3356 115.753 29.3356ZM115.776 25.6442C116.566 25.6442 117.226 25.4205 117.755 24.973C118.285 24.5181 118.684 23.8991 118.952 23.1161C119.228 22.3331 119.366 21.4419 119.366 20.4426C119.366 19.4434 119.228 18.5522 118.952 17.7692C118.684 16.9862 118.285 16.3672 117.755 15.9123C117.226 15.4574 116.566 15.2299 115.776 15.2299C114.978 15.2299 114.306 15.4574 113.762 15.9123C113.225 16.3672 112.819 16.9862 112.543 17.7692C112.274 18.5522 112.14 19.4434 112.14 20.4426C112.14 21.4419 112.274 22.3331 112.543 23.1161C112.819 23.8991 113.225 24.5181 113.762 24.973C114.306 25.4205 114.978 25.6442 115.776 25.6442ZM136.548 11.8182V15.3977H125.944V11.8182H136.548ZM128.371 29V10.5765C128.371 9.33114 128.613 8.29829 129.098 7.47798C129.59 6.65767 130.261 6.04243 131.112 5.63228C131.962 5.22212 132.928 5.01704 134.009 5.01704C134.74 5.01704 135.407 5.07297 136.011 5.18484C136.623 5.2967 137.078 5.39737 137.376 5.48686L136.526 9.06641C136.339 9.00675 136.108 8.95082 135.832 8.89861C135.564 8.84641 135.288 8.82031 135.004 8.82031C134.303 8.82031 133.815 8.98438 133.539 9.3125C133.263 9.63317 133.125 10.0843 133.125 10.666V29H128.371ZM153.201 16.7177L148.839 16.9862C148.764 16.6133 148.604 16.2777 148.358 15.9794C148.112 15.6737 147.787 15.4313 147.385 15.2523C146.989 15.0659 146.516 14.9727 145.964 14.9727C145.226 14.9727 144.603 15.1293 144.096 15.4425C143.589 15.7482 143.335 16.1584 143.335 16.6729C143.335 17.0831 143.499 17.4299 143.827 17.7132C144.156 17.9966 144.719 18.2241 145.517 18.3956L148.626 19.022C150.297 19.3651 151.542 19.9169 152.362 20.6776C153.183 21.4382 153.593 22.4375 153.593 23.6754C153.593 24.8015 153.261 25.7896 152.597 26.6397C151.941 27.4899 151.039 28.1536 149.89 28.6309C148.749 29.1007 147.433 29.3356 145.942 29.3356C143.667 29.3356 141.855 28.862 140.505 27.915C139.163 26.9604 138.376 25.6628 138.145 24.0222L142.832 23.7761C142.974 24.4696 143.317 24.9991 143.861 25.3645C144.405 25.7225 145.103 25.9015 145.953 25.9015C146.788 25.9015 147.459 25.7411 147.966 25.4205C148.481 25.0923 148.742 24.671 148.749 24.1564C148.742 23.7239 148.559 23.3697 148.201 23.0938C147.843 22.8104 147.291 22.5941 146.546 22.445L143.57 21.8521C141.892 21.5165 140.643 20.9348 139.823 20.1071C139.01 19.2793 138.604 18.2241 138.604 16.9414C138.604 15.8377 138.902 14.8869 139.498 14.089C140.102 13.291 140.949 12.6758 142.038 12.2433C143.134 11.8107 144.417 11.5945 145.886 11.5945C148.056 11.5945 149.763 12.0531 151.009 12.9703C152.262 13.8876 152.993 15.1367 153.201 16.7177ZM164.424 29.3356C162.656 29.3356 161.135 28.9776 159.86 28.2617C158.592 27.5384 157.615 26.5167 156.929 25.1967C156.243 23.8693 155.9 22.2995 155.9 20.4874C155.9 18.72 156.243 17.1689 156.929 15.834C157.615 14.4991 158.581 13.4588 159.826 12.7131C161.079 11.9673 162.548 11.5945 164.234 11.5945C165.367 11.5945 166.422 11.7772 167.399 12.1426C168.384 12.5005 169.241 13.0412 169.972 13.7646C170.71 14.4879 171.285 15.3977 171.695 16.494C172.105 17.5827 172.31 18.858 172.31 20.3196V21.6284H157.802V18.6752H167.824C167.824 17.9892 167.675 17.3814 167.377 16.8519C167.079 16.3224 166.665 15.9086 166.135 15.6103C165.613 15.3045 165.005 15.1516 164.312 15.1516C163.589 15.1516 162.947 15.3194 162.388 15.655C161.836 15.9831 161.404 16.4268 161.09 16.9862C160.777 17.538 160.617 18.1532 160.609 18.8319V21.6396C160.609 22.4897 160.766 23.2243 161.079 23.8432C161.4 24.4622 161.851 24.9395 162.433 25.275C163.014 25.6106 163.704 25.7784 164.502 25.7784C165.032 25.7784 165.516 25.7038 165.956 25.5547C166.396 25.4055 166.773 25.1818 167.086 24.8835C167.399 24.5852 167.638 24.2198 167.802 23.7873L172.209 24.0781C171.986 25.1371 171.527 26.0618 170.833 26.8523C170.147 27.6353 169.26 28.2468 168.171 28.6868C167.09 29.1193 165.841 29.3356 164.424 29.3356ZM175.42 29V11.8182H180.04V14.8161H180.219C180.532 13.7496 181.057 12.9442 181.796 12.3999C182.534 11.848 183.384 11.5721 184.346 11.5721C184.585 11.5721 184.842 11.587 185.118 11.6168C185.394 11.6467 185.636 11.6877 185.845 11.7399V15.9682C185.621 15.9011 185.312 15.8414 184.917 15.7892C184.521 15.737 184.16 15.7109 183.832 15.7109C183.131 15.7109 182.504 15.8638 181.952 16.1696C181.408 16.4679 180.975 16.8855 180.655 17.4224C180.342 17.9593 180.185 18.5783 180.185 19.2793V29H175.42ZM204.85 11.8182L198.843 29H193.474L187.467 11.8182H192.501L196.069 24.1117H196.248L199.805 11.8182H204.85Z" fill="#1E1E1E"/>
<g clip-path="url(#clip0_2525_35)">
<path d="M56.2497 27.6543L53.1002 24.0747C53.0372 24.0114 52.9742 23.948 52.8798 23.8847L49.1949 19.735L37.6048 6.62061L37.5733 6.65228C37.4788 6.74731 37.3843 6.84235 37.2898 6.93738L34.6758 9.88336L46.1399 22.8077L53.1317 30.8853L56.2497 27.6543Z" fill="#FB2626"/>
<path d="M15.4324 16.7574L25.1643 5.73376C25.2903 5.60705 25.3848 5.48034 25.5108 5.38531L28.1563 2.40765L30.0775 0.221923C29.4476 0.0635374 28.7862 -0.0314941 28.1248 -0.0314941C25.7627 -0.0314941 23.5581 0.982176 21.9204 2.85113L15.4324 10.2319L13.7002 12.1959L9.35395 17.0742L7.62174 19.0382L5.07066 21.8891L3.33845 23.8531L0 27.6544L3.08649 30.7587L7.14931 26.1339L7.77921 25.437L7.8422 25.3736L9.41694 23.5997L13.7317 18.7214L15.4324 16.7574Z" fill="#FB2626"/>
<path d="M36.1878 5.54357L36.2193 5.5119C36.2193 5.5119 36.2507 5.48022 36.2822 5.48022C36.3452 5.41686 36.4082 5.35351 36.4712 5.32183L36.5342 5.25848C36.7547 5.10009 36.9751 4.94171 37.1956 4.815H37.2271C37.479 4.68829 37.7625 4.59326 38.0145 4.49822C38.3294 4.40319 38.6129 4.37152 38.9278 4.37152C40.0301 4.37152 41.1009 4.87835 41.8883 5.76531L51.6202 16.789L54.8012 13.8747L49.825 8.23614L49.7305 8.1411L45.1638 2.88269C44.3449 1.96405 43.4001 1.23547 42.3292 0.760314C41.2899 0.285156 40.1246 0.0317383 38.9593 0.0317383C38.3609 0.0317383 37.7625 0.0950927 37.1641 0.221802C36.4082 0.380188 35.6523 0.69696 34.9595 1.07709C34.5185 1.3305 34.0776 1.64728 33.6682 1.99573C33.6052 2.0274 33.5737 2.05908 33.5107 2.12243L33.4792 2.15411C33.3532 2.24914 33.2587 2.34417 33.1643 2.47088C33.1643 2.47088 33.1643 2.47088 33.1643 2.50256C33.1013 2.56592 33.0383 2.62927 32.9753 2.69262C32.9123 2.75598 32.8493 2.85101 32.7548 2.91436L30.6447 5.32183L30.6762 5.35351L13.7635 24.4549L12.7242 25.6269L10.8975 27.6859L13.8895 30.727L17.4799 26.704C17.5744 26.6089 17.6373 26.5139 17.7318 26.4189L18.4247 25.6269L32.3769 9.82L33.5107 8.52123V8.48955L35.9673 5.70196C36.0618 5.70196 36.1248 5.60693 36.1878 5.54357Z" fill="#FB2626"/>
<path d="M32.3766 21.7942H26.5815V27.6228H32.3766V21.7942Z" fill="#FB2626"/>
<path d="M32.3766 29.9985H26.5815V35.8271H32.3766V29.9985Z" fill="#FB2626"/>
<path d="M40.5338 21.7942H34.7388V27.6228H40.5338V21.7942Z" fill="#FB2626"/>
<path d="M40.5338 29.9985H34.7388V35.8271H40.5338V29.9985Z" fill="#FB2626"/>
</g>
<defs>
<clipPath id="clip0_2525_35">
<rect width="56.2497" height="35.7952" fill="white"/>
</clipPath>
</defs>
</svg>
