<svg width="165" height="43" viewBox="0 0 165 43" fill="none" xmlns="http://www.w3.org/2000/svg">
<path fill-rule="evenodd" clip-rule="evenodd" d="M8.99844 19.2995V30.8692L22 41.5V1.5L0 19.2995H8.99844Z" fill="#F8B326"/>
<path fill-rule="evenodd" clip-rule="evenodd" d="M39.5925 19.3273V41.5L26 30.915V1.5L49 19.3273H39.5925Z" fill="#F8B326"/>
<path d="M59.142 34V9.894H63.528L72.776 23.868H70.702L79.916 9.894H84.302V34H78.284V19.958L79.236 20.23L73.694 28.56H69.75L64.242 20.23L65.194 19.958V34H59.142ZM96.8212 34.374C95.2572 34.374 93.8632 34.068 92.6392 33.456C91.4378 32.8213 90.4858 31.9487 89.7832 30.838C89.1032 29.7047 88.7632 28.424 88.7632 26.996V17.374H94.6792V26.996C94.6792 27.4493 94.7698 27.846 94.9512 28.186C95.1325 28.526 95.3818 28.7867 95.6992 28.968C96.0165 29.1493 96.3905 29.24 96.8212 29.24C97.4558 29.24 97.9658 29.036 98.3512 28.628C98.7592 28.22 98.9632 27.676 98.9632 26.996V17.374H104.879V26.996C104.879 28.4467 104.539 29.7273 103.859 30.838C103.179 31.9487 102.227 32.8213 101.003 33.456C99.8018 34.068 98.4078 34.374 96.8212 34.374ZM110.959 34V17.034C110.959 15.5153 111.265 14.1667 111.877 12.988C112.489 11.8093 113.384 10.88 114.563 10.2C115.741 9.49733 117.147 9.146 118.779 9.146C120.433 9.146 121.827 9.47467 122.961 10.132C124.094 10.7893 124.944 11.628 125.511 12.648C126.1 13.6453 126.395 14.6767 126.395 15.742L121.737 16.524C121.737 15.776 121.521 15.198 121.091 14.79C120.66 14.3593 120.059 14.144 119.289 14.144C118.541 14.144 117.951 14.3593 117.521 14.79C117.09 15.198 116.875 15.7647 116.875 16.49V34H110.959ZM107.423 22.304V17.374H132.345V22.304H107.423ZM121.737 34V16.354C121.737 14.9487 122.043 13.6793 122.655 12.546C123.267 11.4127 124.139 10.506 125.273 9.826C126.429 9.146 127.811 8.806 129.421 8.806C130.622 8.806 131.676 9.01 132.583 9.418C133.489 9.80333 134.271 10.3247 134.929 10.982L131.223 14.688C131.041 14.484 130.815 14.3367 130.543 14.246C130.293 14.1327 129.999 14.076 129.659 14.076C129.047 14.076 128.559 14.2573 128.197 14.62C127.834 14.9827 127.653 15.47 127.653 16.082V34H121.737ZM136.899 34V9.214H142.815V34H136.899ZM155.714 34.374C153.855 34.374 152.212 34.0113 150.784 33.286C149.356 32.538 148.234 31.5067 147.418 30.192C146.602 28.8773 146.194 27.37 146.194 25.67C146.194 23.9927 146.591 22.508 147.384 21.216C148.177 19.9013 149.254 18.87 150.614 18.122C151.997 17.3513 153.549 16.966 155.272 16.966C156.949 16.966 158.434 17.3287 159.726 18.054C161.041 18.7567 162.061 19.7427 162.786 21.012C163.534 22.2587 163.908 23.6867 163.908 25.296C163.908 25.636 163.885 25.9873 163.84 26.35C163.817 26.69 163.749 27.0867 163.636 27.54L148.982 27.608V23.8L161.29 23.698L158.638 25.364C158.615 24.4347 158.479 23.6753 158.23 23.086C157.981 22.474 157.618 22.0093 157.142 21.692C156.666 21.3747 156.065 21.216 155.34 21.216C154.592 21.216 153.946 21.3973 153.402 21.76C152.858 22.1227 152.439 22.6327 152.144 23.29C151.849 23.9473 151.702 24.7407 151.702 25.67C151.702 26.622 151.861 27.438 152.178 28.118C152.495 28.7753 152.949 29.274 153.538 29.614C154.127 29.954 154.853 30.124 155.714 30.124C156.53 30.124 157.244 29.988 157.856 29.716C158.491 29.444 159.057 29.0247 159.556 28.458L162.65 31.552C161.834 32.4813 160.837 33.184 159.658 33.66C158.502 34.136 157.187 34.374 155.714 34.374Z" fill="#0F0F0F"/>
</svg>
